<svg width="256" height="256" viewBox="0 0 256 256" fill="none" xmlns="http://www.w3.org/2000/svg">
  <path d="M69 48C70.5915 48 71.8804 49.2889 71.8804 50.8804V68.2649C71.8804 73.0538 73.0499 77.7699 75.2873 82.0041C79.6002 90.1662 88.1702 104 104.5 104C106.091 104 107.38 105.289 107.38 106.88V202.12C107.38 203.711 106.091 205 104.5 205H67.3804C65.7889 205 64.5 203.711 64.5 202.12V133.145C64.5 130.578 61.3968 129.292 59.5809 131.108L40.3223 150.367C39.1971 151.492 37.3728 151.492 36.2476 150.367L4.84314 118.963C3.71795 117.838 3.71795 116.014 4.84315 114.888L67.2929 52.4393C67.833 51.8992 68.5656 48 69 48Z" fill="#95B8C5"/>
  <path d="M162.5 48C164.091 48 165.38 49.2889 165.38 50.8804V68.2649C165.38 73.0538 164.21 77.7699 161.973 82.0041C157.66 90.1662 149.09 104 132.76 104C131.169 104 129.88 105.289 129.88 106.88V164.114C129.88 164.878 130.184 165.611 130.724 166.151L171.668 207.095C172.208 207.635 172.94 207.939 173.704 207.939H220.62C222.211 207.939 223.5 206.65 223.5 205.059V170.066C223.5 169.302 223.196 168.569 222.656 168.029L185.914 131.287C184.098 129.471 185.384 126.368 187.951 126.368H205.556C206.32 126.368 207.053 126.064 207.593 125.524L254.157 78.9598C254.697 78.4197 255 77.6871 255 76.9232V50.8804C255 49.2889 253.711 48 252.12 48H162.5Z" fill="#95B8C5"/>
  <path d="M107.38 48H157.38C157.38 76.4427 134.323 99.5 105.88 99.5H107.38V48Z" fill="#E3F0F4"/>
</svg>
